<svg width="16" height="16" viewBox="0 0 16 16" fill="none" xmlns="http://www.w3.org/2000/svg">
<path fill-rule="evenodd" clip-rule="evenodd" d="M0.80988 0.809261C1.25682 0.362318 1.98146 0.362318 2.4284 0.809261L14.7561 13.137C15.203 13.5839 15.203 14.3085 14.7561 14.7555C14.3092 15.2024 13.5845 15.2024 13.1376 14.7555L0.80988 2.42778C0.362938 1.98084 0.362938 1.2562 0.80988 0.809261Z" fill="#292D32"/>
<path fill-rule="evenodd" clip-rule="evenodd" d="M1.24481 14.7555C0.797865 14.3086 0.797865 13.584 1.24481 13.137L13.5725 0.809328C14.0195 0.362385 14.7441 0.362384 15.191 0.809327C15.638 1.25627 15.638 1.98091 15.191 2.42785L2.86333 14.7555C2.41639 15.2025 1.69175 15.2025 1.24481 14.7555Z" fill="#292D32"/>
</svg>
