<svg width="23" height="15" viewBox="0 0 23 15" fill="none" xmlns="http://www.w3.org/2000/svg">
<path fill-rule="evenodd" clip-rule="evenodd" d="M0 2.27483C0 1.54973 0.587812 0.961914 1.31291 0.961914H21.3129C22.038 0.961914 22.6258 1.54973 22.6258 2.27483C22.6258 2.99993 22.038 3.58774 21.3129 3.58774H1.31291C0.587812 3.58774 0 2.99993 0 2.27483Z" fill="#292D32"/>
<path fill-rule="evenodd" clip-rule="evenodd" d="M0 7.83098C0 7.10588 0.587812 6.51807 1.31291 6.51807H21.3129C22.038 6.51807 22.6258 7.10588 22.6258 7.83098C22.6258 8.55608 22.038 9.14389 21.3129 9.14389H1.31291C0.587812 9.14389 0 8.55608 0 7.83098Z" fill="#292D32"/>
<path fill-rule="evenodd" clip-rule="evenodd" d="M0 13.3857C0 12.6606 0.587812 12.0728 1.31291 12.0728H21.3129C22.038 12.0728 22.6258 12.6606 22.6258 13.3857C22.6258 14.1108 22.038 14.6986 21.3129 14.6986H1.31291C0.587812 14.6986 0 14.1108 0 13.3857Z" fill="#292D32"/>
</svg>
